<svg xmlns="http://www.w3.org/2000/svg" xmlns:xlink="http://www.w3.org/1999/xlink" viewBox="0 0 373 116.13"><defs><style>.cls-1{fill:none;}.cls-2{clip-path:url(#clip-path);}.cls-3{fill:#ffcd02;}.cls-4{fill:#fff;}.cls-5{fill:#0a5d67;}</style><clipPath id="clip-path"><rect class="cls-1" y="0.01" width="373" height="116.06"/></clipPath></defs><title>salauno-logo</title><g id="Layer_2" data-name="Layer 2"><g id="Layer_1-2" data-name="Layer 1"><g id="Layer_2-2" data-name="Layer 2"><g class="cls-2"><g id="Layer_1-2-2" data-name="Layer 1-2"><g class="cls-2"><path class="cls-3" d="M13.66,79.1a26.27,26.27,0,0,1-9.55-1.39C1.17,76.53,0,74.92,0,72.26v-.15c0-2.42,1.24-4,3.45-4,2.57,0,3.74,3.09,9.69,3.09,4.34,0,6.61-1.17,6.61-3.6s-1.4-3.46-6.83-4.11C4.48,62.49.15,59.33.15,51.76.15,44,6,39.64,15.42,39.64a24.83,24.83,0,0,1,8.52,1.17c3,1.11,3.89,2.72,3.89,4.93V46c0,2.57-1.32,3.89-3.31,3.89-2.49,0-4.26-2.43-9-2.43-4.26,0-5.8,1.25-5.8,3.45,0,2,1.76,3,7,3.68,9.17,1.17,13,4.19,13,12,0,7.57-4.92,12.49-16.08,12.49m44.85-4.26C55.7,77.91,52,79.09,47.33,79.09c-7.19,0-12.48-4-12.48-11.61,0-8.09,6.46-12.06,15.34-12.06a29.82,29.82,0,0,1,7.71.88V52.64c0-3.53-1.91-5.36-7-5.36-6,0-7.12,3-10,3-2,0-3.23-1.61-3.23-3.67v-.22c0-2.36,1-3.9,3.74-5a30.84,30.84,0,0,1,11.16-1.91c10.65,0,16.08,3.53,16.08,12.42V73.59C68.65,77.26,67.4,79,64,79h-.22c-2.57,0-4.33-1.4-5.21-4.19m-.59-5.44V62a32.26,32.26,0,0,0-5.51-.44c-4.33,0-7.12,1.55-7.12,5.3s2.43,5.44,6,5.44a9.83,9.83,0,0,0,6.61-2.94m28-34.91V73.73c0,3.46-2.13,5.3-5.29,5.3h-.15c-3.16,0-5.28-1.84-5.28-5.3V32.28c0-3.53,1.47-5.44,5.06-5.44h.22c3.67,0,5.44,2.28,5.44,7.65m29.73,40.35c-2.79,3.09-6.46,4.26-11.16,4.26C97.29,79.1,92,75.1,92,67.49c0-8.09,6.46-12.06,15.35-12.06a29.85,29.85,0,0,1,7.71.88V52.64c0-3.53-1.91-5.36-7-5.36-6,0-7.12,3-10,3-2,0-3.23-1.61-3.23-3.67v-.22c0-2.36,1-3.9,3.74-5a30.77,30.77,0,0,1,11.16-1.91c10.64,0,16.08,3.53,16.08,12.42V73.59c0,3.67-1.25,5.44-4.7,5.44h-.22c-2.57,0-4.33-1.4-5.21-4.19M115,69.4V62a32.3,32.3,0,0,0-5.51-.44c-4.33,0-7.12,1.55-7.12,5.3s2.42,5.44,6,5.44A9.84,9.84,0,0,0,115,69.4"/><path class="cls-4" d="M158.57,74.84a24.26,24.26,0,0,1-13.52,4.33c-6.46,0-11.23-2.5-11.23-10.44V45c0-3.24,1.91-5.29,5.28-5.29h.15c3.38,0,5.28,2,5.28,5.29V66c0,3.83,1.62,5.15,5.44,5.15a22.71,22.71,0,0,0,8.08-1.91V45c0-3.24,1.91-5.29,5.28-5.29h.15c3.37,0,5.28,2,5.28,5.29V73.59c0,3.67-1.39,5.44-5,5.44h-.22c-2.57,0-4.18-1.4-5-4.19m28-25V73.73c0,3.46-2.13,5.3-5.29,5.3h-.14c-3.15,0-5.28-1.84-5.28-5.3V45.14c0-3.67,1.54-5.44,5.06-5.44h.23c2.64,0,4.41,1.25,5.07,4.63a24.92,24.92,0,0,1,14.24-4.85c5.58,0,10.35,2.13,10.35,10.8V73.73c0,3.46-2.13,5.3-5.28,5.3h-.15c-3.16,0-5.29-1.84-5.29-5.3V53c0-3.83-1.47-4.93-4.77-4.93a25.68,25.68,0,0,0-8.74,1.76m48.16,29.33C223.84,79.17,215,71.9,215,59.54s8.81-20.06,19.67-20.06,19.67,7.64,19.67,20.06-8.81,19.63-19.67,19.63m0-7.64c5.22,0,8.81-3.6,8.81-11.9s-3.59-12.5-8.81-12.5-8.81,4.11-8.81,12.5,3.6,11.9,8.81,11.9"/><path class="cls-5" d="M365.9,69.12a41.21,41.21,0,0,0,5.31-.41c3.22-.62,1.84-1.9-2.1-2-1.73,0-3.53,0-5.25.09h-1l-.46-.35c.65-.13,1.29-.25,1.9-.39a20.62,20.62,0,0,0,4.21-1c2-1.08-1-2.18-4.71-1.7-1.6.22-3.17.51-4.63.83l-1.78.4a49.82,49.82,0,0,0-9.73-1.21c-16.6-.67-28.68,1.35-38.19,4.06-5.63,1.61-2.82,3,1.74,4-4.48.62-30.21,7-30.21,7-.65.16-.8,1.14-.94,1.19.34,0,3.12.27,4.81.38,2.77.17,31.61-7.46,31.61-7.46l3.12.71L296.22,79c-1.49.42-3.38,1.75-.61,1.92a18.52,18.52,0,0,0,5.89-.57c3.11-.84,21.59-5.08,22.68-5.42,11.31,2.7,26.72-.65,34.54-2.37a16.3,16.3,0,0,0,2.16-.64l2.29.3a40.77,40.77,0,0,0,5.29.44c3.83-.05,4.82-1.36,1.54-2-1.45-.27-3.08-.51-4.69-.71l-1.5-.18a2,2,0,0,0,.18-.56l1.93-.07"/><path class="cls-4" d="M288.59,35.89V41a2.15,2.15,0,1,1-4.3,0h0V35.89a2.15,2.15,0,1,1,4.3,0h0m4.1,0V41a2.15,2.15,0,1,0,4.3,0h0V35.89a2.15,2.15,0,1,0-4.3,0h0"/><path class="cls-4" d="M288.57,66.66v9.9c0,3-1.18,4.34-4,4.34A17.29,17.29,0,0,1,280,80c0-.34,0-1.59.08-2.78h3.18c.45,0,.82-.07.82-1V66.14a33.48,33.48,0,0,0,4.44.52m10.7,10.56h-2c-.44,0-.82-.07-.82-1v-10a35.48,35.48,0,0,1-4.44.4v9.87c0,3,1.18,4.34,4,4.34a16.87,16.87,0,0,0,4.58-.92c0-.36,0-1.59-.08-2.77Z"/><path class="cls-3" d="M319.1,22.87A18.79,18.79,0,0,0,315.57,24c-.41.17-.84.36-1.27.56a24,24,0,0,0-2.38-4.75,24.55,24.55,0,0,0,2.47-2.39c1-1.12,2.37-2.41,2.83-3.87,1-3.22-2.42-5.49-5.25-3.5a24.1,24.1,0,0,0-3.42,3.09c-.44.47-.92,1-1.38,1.52A21.24,21.24,0,0,0,302.49,12a32.39,32.39,0,0,0,1.42-3.22c.64-1.63,1.51-3.57,1.4-5.31-.23-3.84-4.67-4.77-6.81-1.45a28.53,28.53,0,0,0-2.32,4.73A26.91,26.91,0,0,0,295,10.11a37.58,37.58,0,0,0-4.37-.27c-16,0-25.87,9.11-25.87,28.51s9.92,28.39,25.87,28.39,25.88-9.11,25.88-28.39a45.66,45.66,0,0,0-.69-8.06,19.26,19.26,0,0,0,2.81-1,9.19,9.19,0,0,0,3.34-2,2.75,2.75,0,0,0-2.87-4.42m-28.46,33c-8.5,0-13-5.92-13-17.51s4.49-17.62,13-17.62,13,5.91,13,17.62-4.49,17.51-13,17.51"/><path class="cls-3" d="M326.59,21a2,2,0,0,1,.94.25,1.79,1.79,0,0,1,.72.71,2,2,0,0,1,.25,1,1.93,1.93,0,0,1-.25,1,1.79,1.79,0,0,1-.71.71,1.91,1.91,0,0,1-1.9,0,1.78,1.78,0,0,1-.71-.71,1.92,1.92,0,0,1-.25-1,2,2,0,0,1,.26-1,1.79,1.79,0,0,1,.72-.71,2,2,0,0,1,.94-.25m0,.32a1.65,1.65,0,0,0-.78.21,1.5,1.5,0,0,0-.6.59,1.6,1.6,0,0,0,0,1.59,1.46,1.46,0,0,0,.59.59,1.6,1.6,0,0,0,.79.21,1.63,1.63,0,0,0,.79-.21,1.49,1.49,0,0,0,.59-.59,1.61,1.61,0,0,0,0-1.59,1.49,1.49,0,0,0-.6-.59,1.66,1.66,0,0,0-.79-.21M325.75,24V21.93h.71A1.71,1.71,0,0,1,327,22a.52.52,0,0,1,.26.2.53.53,0,0,1,.1.3.55.55,0,0,1-.16.39.63.63,0,0,1-.43.19.57.57,0,0,1,.17.11,2.26,2.26,0,0,1,.3.41l.25.4h-.41l-.18-.33a1.68,1.68,0,0,0-.35-.48.43.43,0,0,0-.27-.07h-.19V24Zm.33-1.16h.4a.65.65,0,0,0,.39-.09.29.29,0,0,0,0-.39.28.28,0,0,0-.14-.11,1.07,1.07,0,0,0-.33,0h-.38Z"/><path class="cls-4" d="M99.05,114.46l-4-11.74a1.57,1.57,0,0,1-.09-.54A1.18,1.18,0,0,1,96.15,101h.05a1.23,1.23,0,0,1,1.24,1l3.22,9.83h.06l3.09-9.83a1.23,1.23,0,0,1,1.24-1,1.17,1.17,0,0,1,1.24,1.1s0,.06,0,.09a2.28,2.28,0,0,1-.09.54l-4,11.74c-.37,1.08-.84,1.47-1.55,1.47s-1.21-.39-1.58-1.47m8.1-1.3a8.2,8.2,0,0,1-.37-2.56,8.31,8.31,0,0,1,.35-2.58,4.61,4.61,0,0,1,8.55,0,8.46,8.46,0,0,1,.35,2.51.79.79,0,0,1-.73.85h-5.93a.12.12,0,0,0-.13.13,2.25,2.25,0,0,0,.15.8,2.29,2.29,0,0,0,2.35,1.58,3.49,3.49,0,0,0,2.15-.72,1.56,1.56,0,0,1,.89-.34,1,1,0,0,1,1,1,1.14,1.14,0,0,1-.5,1,5.6,5.6,0,0,1-3.76,1.26,4.23,4.23,0,0,1-4.37-2.9m6.3-4.61a2.22,2.22,0,0,0-4.09,0,2.51,2.51,0,0,0-.13.89.12.12,0,0,0,.11.13h4.11a.11.11,0,0,0,.13-.13,2.58,2.58,0,0,0-.13-.89m7.59-2h0a3.17,3.17,0,0,1,4-1.17,1.08,1.08,0,0,1,.65,1,1.16,1.16,0,0,1-1.08,1.24h-.11a1.91,1.91,0,0,1-.56-.11,3.65,3.65,0,0,0-1-.18c-1.34,0-1.91,1.06-1.91,2.64v4.64a1.16,1.16,0,0,1-1,1.27h-.17a1.18,1.18,0,0,1-1.21-1.27v-8.11a1.21,1.21,0,0,1,2.42,0h0Zm6.77,6.37a1.54,1.54,0,1,1-1.53,1.55h0a1.54,1.54,0,0,1,1.53-1.54m9,1.49-4-11.74a1.64,1.64,0,0,1-.09-.54,1.19,1.19,0,0,1,1.19-1.19h0a1.23,1.23,0,0,1,1.24,1l3.23,9.83h.06l3.09-9.83a1.24,1.24,0,0,1,1.24-1,1.17,1.17,0,0,1,1.24,1.1s0,.06,0,.09a2.51,2.51,0,0,1-.09.54l-4,11.74c-.37,1.08-.84,1.47-1.56,1.47s-1.21-.39-1.58-1.47m10.47-13.56a1.45,1.45,0,1,1-1.45,1.45h0a1.45,1.45,0,0,1,1.45-1.45M146,114.66v-8.11a1.21,1.21,0,1,1,2.43,0v8.11a1.21,1.21,0,0,1-2.43,0m7.66-.2L150.78,107a1.5,1.5,0,0,1-.11-.59,1.18,1.18,0,0,1,2.32-.28l2.36,6.32h0l2.27-6.32a1.17,1.17,0,0,1,2.3.28,1.47,1.47,0,0,1-.11.59l-2.92,7.45c-.46,1.11-.82,1.47-1.62,1.47s-1.15-.37-1.6-1.47m9.67-13.56a1.45,1.45,0,1,1-1.45,1.45h0a1.45,1.45,0,0,1,1.45-1.45m-1.21,13.76v-8.11a1.21,1.21,0,0,1,2.42,0h0v8.11a1.21,1.21,0,0,1-2.42,0h0m8-8.06h0a3.17,3.17,0,0,1,4-1.17,1.09,1.09,0,0,1,.65,1,1.16,1.16,0,0,1-1.08,1.24h-.11a1.94,1.94,0,0,1-.56-.11,3.63,3.63,0,0,0-1-.18c-1.34,0-1.9,1.06-1.9,2.64v4.64a1.21,1.21,0,0,1-2.42,0h0v-8.11a1.21,1.21,0,0,1,2.42,0h0ZM176.9,113a1.54,1.54,0,1,1-1.53,1.55h0A1.55,1.55,0,0,1,176.9,113m6-9.58a1.16,1.16,0,1,1,0-2.3h8.66a1.16,1.16,0,1,1,0,2.3h-2.92a.12.12,0,0,0-.13.13v11.07a1.28,1.28,0,1,1-2.55,0V103.52c0-.09,0-.13-.12-.13Zm12.85,3.21h0a3.16,3.16,0,0,1,4-1.17,1.08,1.08,0,0,1,.65,1,1.16,1.16,0,0,1-1.08,1.24h-.11a1.91,1.91,0,0,1-.56-.11,3.66,3.66,0,0,0-1-.18c-1.34,0-1.91,1.06-1.91,2.64v4.64a1.16,1.16,0,0,1-1,1.27h-.17a1.17,1.17,0,0,1-1.21-1.27v-8.11a1.21,1.21,0,0,1,2.42,0h0ZM211,114.81a1.24,1.24,0,0,1-2.23.63l-.35-.52h0a3.92,3.92,0,0,1-3.07,1.15c-2.47,0-3.79-1.17-3.79-3.16,0-2.25,1.58-3.34,4.15-3.34h2.14a.12.12,0,0,0,.13-.13v-.26c0-1.21-.69-1.92-2.34-1.92a4.72,4.72,0,0,0-1.91.43,1.71,1.71,0,0,1-.63.13.94.94,0,0,1-1-1,1,1,0,0,1,.61-1,6.42,6.42,0,0,1,3.18-.71c3,0,4.37,1.47,4.37,4.05v3.29a1.87,1.87,0,0,0,.22,1l.33.56a1.49,1.49,0,0,1,.19.72m-3-2.36v-.93c0-.09,0-.13-.13-.13H206.2c-1.6,0-2.25.45-2.25,1.41s.62,1.3,1.82,1.3c1.41,0,2.29-.54,2.29-1.64m7.81-6.09a3.25,3.25,0,0,1,2.75-1.21,3.56,3.56,0,0,1,3.61,3.88v5.64a1.21,1.21,0,0,1-2.42,0h0v-5.07c0-1.34-.65-2.27-2-2.27s-2,.93-2,2.27v5.07a1.21,1.21,0,0,1-2.42,0h0v-8.11a1.22,1.22,0,0,1,2.42-.19Zm9.44,8.65a1.08,1.08,0,0,1-.59-1,1.1,1.1,0,0,1,1.1-1.1h0a1.51,1.51,0,0,1,.75.24,4.75,4.75,0,0,0,2.66.85c1.19,0,1.93-.45,1.93-1.24s-.37-1-1.73-1.15l-1.13-.11c-2.14-.24-3.2-1.3-3.2-3.08,0-2,1.43-3.29,4.05-3.29a6.8,6.8,0,0,1,3.15.78,1.13,1.13,0,0,1,.73,1,1,1,0,0,1-.94,1.06H232a1.53,1.53,0,0,1-.76-.24,5.29,5.29,0,0,0-2.25-.57c-1.08,0-1.58.48-1.58,1.09s.39,1,1.72,1.1l1.12.11c2.21.22,3.22,1.34,3.22,3.08,0,2.08-1.55,3.51-4.39,3.51a6.93,6.93,0,0,1-3.81-1.06M239.93,101a1.09,1.09,0,0,1,1.24,1.09,1.05,1.05,0,0,1-1,1.08h-.09c-1,0-1.25.28-1.25,1.26v.74a.11.11,0,0,0,.09.13h1.23a.92.92,0,0,1,1,1,.91.91,0,0,1-.89.93h-1.3a.11.11,0,0,0-.13.13v7.26a1.21,1.21,0,1,1-2.43,0v-7.26c0-.09-.06-.13-.15-.13h-.35a.9.9,0,0,1-1-.93.92.92,0,0,1,.83-1h.52c.09,0,.15,0,.15-.13v-.69c0-2.53,1.08-3.47,3.46-3.47Zm2.94,12.09a9.78,9.78,0,0,1,0-5.16,4.65,4.65,0,0,1,8.59,0,9.77,9.77,0,0,1,0,5.16,4.65,4.65,0,0,1-8.59,0m6.25-.65a5.86,5.86,0,0,0,.22-1.92,6,6,0,0,0-.22-1.93,1.93,1.93,0,0,0-1.95-1.36,2,2,0,0,0-2,1.36,6.07,6.07,0,0,0-.22,1.93,5.93,5.93,0,0,0,.22,1.92,2,2,0,0,0,2,1.37,1.93,1.93,0,0,0,1.95-1.37m7.71-5.93h0a3.16,3.16,0,0,1,4-1.17,1.09,1.09,0,0,1,.65,1,1.16,1.16,0,0,1-1.08,1.24h-.11a1.93,1.93,0,0,1-.56-.11,3.64,3.64,0,0,0-1-.18c-1.34,0-1.9,1.06-1.9,2.64v4.64a1.21,1.21,0,0,1-2.42,0h0v-8.11a1.21,1.21,0,0,1,2.42,0h0Zm6.66,0a1.22,1.22,0,0,1,2.43-.19h0a3.21,3.21,0,0,1,2.75-1.21,3.35,3.35,0,0,1,2.86,1.38h0a4.29,4.29,0,0,1,3.34-1.38,3.59,3.59,0,0,1,3.78,3.88v5.64a1.21,1.21,0,1,1-2.42,0v-5.07c0-1.34-.67-2.27-2-2.27a2,2,0,0,0-2,2.27v5.07a1.21,1.21,0,1,1-2.43,0v-5.07c0-1.34-.67-2.27-2-2.27a2,2,0,0,0-2,2.27v5.07a1.22,1.22,0,1,1-2.43,0Zm27.23,8.26a1.14,1.14,0,0,1-1.15,1.13h-.06a1.16,1.16,0,0,1-1-.5l-.35-.52h0a3.91,3.91,0,0,1-3.07,1.15c-2.47,0-3.79-1.17-3.79-3.16,0-2.25,1.58-3.34,4.15-3.34h2.15a.11.11,0,0,0,.13-.13v-.26c0-1.21-.69-1.92-2.33-1.92a4.72,4.72,0,0,0-1.9.43,1.72,1.72,0,0,1-.63.13.94.94,0,0,1-1-1,1.05,1.05,0,0,1,.61-1,6.45,6.45,0,0,1,3.18-.71c3,0,4.37,1.47,4.37,4.05v3.29a1.88,1.88,0,0,0,.22,1l.32.56a1.46,1.46,0,0,1,.2.72m-3-2.36v-.93c0-.09,0-.13-.13-.13h-1.73c-1.6,0-2.25.45-2.25,1.41s.63,1.3,1.82,1.3c1.41,0,2.29-.54,2.29-1.64m7.79-5.85h0a3.17,3.17,0,0,1,4-1.17,1.09,1.09,0,0,1,.65,1,1.16,1.16,0,0,1-1.08,1.24H299a1.92,1.92,0,0,1-.56-.11,3.66,3.66,0,0,0-1-.18c-1.34,0-1.9,1.06-1.9,2.64v4.64a1.21,1.21,0,0,1-2.43,0v-8.11a1.21,1.21,0,1,1,2.43,0h0Zm6.34,6.37a1.54,1.54,0,1,1-1.54,1.54,1.54,1.54,0,0,1,1.54-1.54h0"/></g></g></g></g></g></g></svg>